<?xml version="1.0" encoding="UTF-8" standalone="no"?>
<!-- Created with Inkscape (http://www.inkscape.org/) -->

<svg
   xmlns:dc="http://purl.org/dc/elements/1.1/"
   xmlns:cc="http://creativecommons.org/ns#"
   xmlns:rdf="http://www.w3.org/1999/02/22-rdf-syntax-ns#"
   xmlns:svg="http://www.w3.org/2000/svg"
   xmlns="http://www.w3.org/2000/svg"
   xmlns:sodipodi="http://sodipodi.sourceforge.net/DTD/sodipodi-0.dtd"
   xmlns:inkscape="http://www.inkscape.org/namespaces/inkscape"
   width="128"
   height="64"
   id="svg2"
   version="1.1"
   inkscape:version="0.48.3.1 r9886"
   sodipodi:docname="hert.svg"
   inkscape:export-filename="/home/lsimons/node_projects/ige_prototype/rh/assets/images/hert.png"
   inkscape:export-xdpi="90"
   inkscape:export-ydpi="90">
  <defs
     id="defs4" />
  <sodipodi:namedview
     id="base"
     pagecolor="#ffffff"
     bordercolor="#666666"
     borderopacity="1.0"
     inkscape:pageopacity="0.0"
     inkscape:pageshadow="2"
     inkscape:zoom="8"
     inkscape:cx="48.046444"
     inkscape:cy="14.891108"
     inkscape:document-units="px"
     inkscape:current-layer="layer2"
     showgrid="false"
     inkscape:window-width="1920"
     inkscape:window-height="1030"
     inkscape:window-x="0"
     inkscape:window-y="0"
     inkscape:window-maximized="1" />
  <metadata
     id="metadata7">
    <rdf:RDF>
      <cc:Work
         rdf:about="">
        <dc:format>image/svg+xml</dc:format>
        <dc:type
           rdf:resource="http://purl.org/dc/dcmitype/StillImage" />
        <dc:title />
      </cc:Work>
    </rdf:RDF>
  </metadata>
  <g
     inkscape:label="Grid"
     inkscape:groupmode="layer"
     id="layer1"
     transform="translate(0,-988.36218)"
     sodipodi:insensitive="true"
     style="display:none">
    <rect
       style="fill:#cecece;fill-opacity:1;stroke:none"
       id="rect2985"
       width="32"
       height="32"
       x="0"
       y="1020.3622" />
    <rect
       y="1020.3622"
       x="32"
       height="32"
       width="32"
       id="rect3755"
       style="fill:#f0f0f0;fill-opacity:1;stroke:none" />
    <rect
       y="1020.3622"
       x="64"
       height="32"
       width="32"
       id="rect3763"
       style="fill:#cecece;fill-opacity:1;stroke:none" />
    <rect
       style="fill:#f0f0f0;fill-opacity:1;stroke:none"
       id="rect3765"
       width="32"
       height="32"
       x="96"
       y="1020.3622" />
    <rect
       y="988.36218"
       x="0"
       height="32"
       width="32"
       id="rect3771"
       style="fill:#f0f0f0;fill-opacity:1;stroke:none" />
    <rect
       style="fill:#cecece;fill-opacity:1;stroke:none"
       id="rect3773"
       width="32"
       height="32"
       x="32"
       y="988.36218" />
    <rect
       style="fill:#f0f0f0;fill-opacity:1;stroke:none"
       id="rect3775"
       width="32"
       height="32"
       x="64"
       y="988.36218" />
    <rect
       y="988.36218"
       x="96"
       height="32"
       width="32"
       id="rect3777"
       style="fill:#cecece;fill-opacity:1;stroke:none" />
  </g>
  <g
     inkscape:groupmode="layer"
     id="layer2"
     inkscape:label="Layer"
     style="opacity:0.9;display:inline">
    <path
       sodipodi:type="arc"
       style="fill:#fff57d;fill-opacity:1;stroke:none"
       id="path3799"
       sodipodi:cx="16.125"
       sodipodi:cy="18.375"
       sodipodi:rx="8.5"
       sodipodi:ry="8.5"
       d="m 24.625,18.375 a 8.5,8.5 0 1 1 -17,0 8.5,8.5 0 1 1 17,0 z"
       transform="matrix(0,-0.67659534,0.67659534,0,3.5648491,26.913872)" />
    <path
       sodipodi:nodetypes="cccc"
       inkscape:connector-curvature="0"
       id="path3806"
       d="m 19.597124,14.566007 2.156648,1.437765 -2.156648,1.437765 c 0,-0.604744 0,-2.159024 0,-2.87553 z"
       style="fill:#292929;fill-opacity:1;stroke:none" />
    <g
       id="g3941"
       transform="matrix(0,-1,1,0,-31.281114,64.098512)">
      <path
         sodipodi:nodetypes="sssss"
         inkscape:connector-curvature="0"
         id="path3910"
         d="m 11.741766,51.214127 c -0.471463,2.624996 0.08993,4.596762 -2.4162461,4.596762 -2.5061736,0 -2.180515,-2.796825 -3.0055748,-6.364747 -0.7772927,-3.361356 0.4994012,-6.129016 3.0055748,-6.129016 2.5061731,0 3.0261351,4.501278 2.4162461,7.897001 z"
         style="fill:#c45500;fill-opacity:1" />
      <path
         style="fill:#4e2403;fill-opacity:1"
         d="m 11.198984,48.052881 c 0.212361,1.064857 0.0719,1.864725 -1.9319543,1.864725 -2.003857,0 -2.2149332,-1.252427 -2.4031627,-2.581927 -0.2100651,-1.483728 0.3993057,-2.486299 2.4031627,-2.486299 2.0038573,0 1.6461633,1.770442 1.9319543,3.203501 z"
         id="path3913"
         inkscape:connector-curvature="0"
         sodipodi:nodetypes="sssss" />
      <path
         inkscape:connector-curvature="0"
         id="path3915"
         d="m 9.2492379,44.852814 c -1.3052647,0 -2.011092,0.41848 -2.2919495,1.125139 0.589527,-0.311726 1.3854157,-0.500062 2.4169655,-0.500062 0.6139331,0 1.0518431,0.10336 1.4168411,0.291703 -0.214865,-0.544083 -0.620083,-0.91678 -1.5418571,-0.91678 z"
         style="fill:#1f0e01;fill-opacity:0.90196078" />
      <path
         inkscape:connector-curvature="0"
         id="path3922"
         d="m 7.3740065,54.43733 c 0.3479576,0.852152 0.895299,1.37517 1.958575,1.37517 1.2530885,0 1.7267185,-0.512431 1.9585755,-1.333498 -0.306923,0.562044 -0.886968,0.875108 -2.0002473,0.875108 -0.9588428,0 -1.5295537,-0.319161 -1.9169032,-0.91678 z"
         style="fill:#823800;fill-opacity:1" />
      <path
         style="fill:#c45500;fill-opacity:1"
         d="m 19.825631,51.214127 c 0.471463,2.624996 -0.08993,4.596762 2.416246,4.596762 2.506174,0 2.180515,-2.796825 3.005575,-6.364747 0.777293,-3.361356 -0.499401,-6.129016 -3.005575,-6.129016 -2.506173,0 -3.026135,4.501278 -2.416246,7.897001 z"
         id="path3933"
         inkscape:connector-curvature="0"
         sodipodi:nodetypes="sssss" />
      <path
         sodipodi:nodetypes="sssss"
         inkscape:connector-curvature="0"
         id="path3935"
         d="m 20.368413,48.052881 c -0.212361,1.064857 -0.0719,1.864725 1.931954,1.864725 2.003857,0 2.214933,-1.252427 2.403163,-2.581927 0.210065,-1.483728 -0.399306,-2.486299 -2.403163,-2.486299 -2.003857,0 -1.646163,1.770442 -1.931954,3.203501 z"
         style="fill:#4e2403;fill-opacity:1" />
      <path
         style="fill:#1f0e01;fill-opacity:0.90196078"
         d="m 22.318159,44.852814 c 1.305265,0 2.011092,0.41848 2.29195,1.125139 -0.589527,-0.311726 -1.385416,-0.500062 -2.416966,-0.500062 -0.613933,0 -1.051843,0.10336 -1.416841,0.291703 0.214865,-0.544083 0.620083,-0.91678 1.541857,-0.91678 z"
         id="path3937"
         inkscape:connector-curvature="0" />
      <path
         style="fill:#823800;fill-opacity:1"
         d="m 24.19339,54.43733 c -0.347957,0.852152 -0.895299,1.37517 -1.958575,1.37517 -1.253088,0 -1.726718,-0.512431 -1.958575,-1.333498 0.306923,0.562044 0.886968,0.875108 2.000247,0.875108 0.958843,0 1.529554,-0.319161 1.916903,-0.91678 z"
         id="path3939"
         inkscape:connector-curvature="0" />
    </g>
    <path
       sodipodi:nodetypes="sssss"
       inkscape:connector-curvature="0"
       id="path4015"
       d="m 51.620111,52.794245 c 2.624996,0.471463 4.596762,-0.08993 4.596762,2.416246 0,2.506174 -2.796825,2.180515 -6.364747,3.005575 -3.361356,0.777293 -6.129016,-0.499401 -6.129016,-3.005575 0,-2.506173 4.501278,-3.026135 7.897001,-2.416246 z"
       style="fill:#c45500;fill-opacity:1" />
    <path
       style="fill:#4e2403;fill-opacity:1"
       d="m 48.458865,53.337027 c 1.064857,-0.212361 1.864725,-0.0719 1.864725,1.931954 0,2.003857 -1.252427,2.214934 -2.581927,2.403163 -1.483728,0.210065 -2.486299,-0.399306 -2.486299,-2.403163 0,-2.003857 1.770442,-1.646163 3.203501,-1.931954 z"
       id="path4017"
       inkscape:connector-curvature="0"
       sodipodi:nodetypes="sssss" />
    <path
       inkscape:connector-curvature="0"
       id="path4019"
       d="m 45.258798,55.286773 c 0,1.305265 0.41848,2.011092 1.125139,2.29195 -0.311726,-0.589527 -0.500062,-1.385416 -0.500062,-2.416966 0,-0.613933 0.10336,-1.051843 0.291703,-1.416841 -0.544083,0.214865 -0.91678,0.620083 -0.91678,1.541857 z"
       style="fill:#1f0e01;fill-opacity:0.90196078" />
    <path
       inkscape:connector-curvature="0"
       id="path4021"
       d="m 54.843314,57.162005 c 0.852152,-0.347958 1.37517,-0.895299 1.37517,-1.958575 0,-1.253089 -0.512431,-1.726719 -1.333498,-1.958576 0.562044,0.306923 0.875108,0.886968 0.875108,2.000247 0,0.958843 -0.319161,1.529554 -0.91678,1.916904 z"
       style="fill:#823800;fill-opacity:1" />
    <path
       style="fill:#c45500;fill-opacity:1"
       d="m 53.599129,44.71038 c 1.994764,-0.471463 3.493131,0.08993 3.493131,-2.416246 0,-2.506174 -2.125339,-2.180515 -4.836642,-3.005575 -2.554331,-0.777293 -4.657508,0.499401 -4.657508,3.005575 0,2.506173 3.420571,3.026135 6.001019,2.416246 z"
       id="path4023"
       inkscape:connector-curvature="0"
       sodipodi:nodetypes="sssss" />
    <path
       sodipodi:nodetypes="sssss"
       inkscape:connector-curvature="0"
       id="path4025"
       d="m 51.196863,44.167598 c 0.809197,0.212361 1.417025,0.0719 1.417025,-1.931954 0,-2.003857 -0.951733,-2.214933 -1.962035,-2.403163 -1.127501,-0.210065 -1.889366,0.399306 -1.889366,2.403163 0,2.003857 1.345379,1.646163 2.434376,1.931954 z"
       style="fill:#4e2403;fill-opacity:1" />
    <path
       style="fill:#1f0e01;fill-opacity:0.90196078"
       d="m 48.765096,42.217852 c 0,-1.305265 0.318008,-2.011092 0.855007,-2.29195 -0.236885,0.589527 -0.380004,1.385416 -0.380004,2.416966 0,0.613933 0.07855,1.051843 0.221669,1.416841 -0.413455,-0.214865 -0.696672,-0.620083 -0.696672,-1.541857 z"
       id="path4027"
       inkscape:connector-curvature="0" />
    <path
       style="fill:#ff9b4e;fill-opacity:1"
       d="m 54.923477,39.967621 c 1.313439,0.184725 2.170007,0.788149 2.170007,2.271075 0,1.671774 -0.621112,2.064724 -2.104249,2.271075 0.886902,-0.355894 1.380913,-1.028488 1.380913,-2.319395 0,-1.111832 -0.503634,-1.773602 -1.446671,-2.222755 z"
       id="path4029"
       inkscape:connector-curvature="0"
       sodipodi:nodetypes="cscsc" />
    <path
       sodipodi:nodetypes="sssss"
       inkscape:connector-curvature="0"
       id="path4041"
       d="m 84.245112,44.585381 c 2.624996,-0.471463 4.596762,0.08993 4.596762,-2.416246 0,-2.506174 -2.796825,-2.180515 -6.364748,-3.005575 -3.361356,-0.777293 -6.129015,0.499401 -6.129015,3.005575 0,2.506173 4.501278,3.026135 7.897001,2.416246 z"
       style="fill:#c45500;fill-opacity:1" />
    <path
       style="fill:#4e2403;fill-opacity:1"
       d="m 81.083866,44.042599 c 1.064857,0.212361 1.864725,0.0719 1.864725,-1.931954 0,-2.003857 -1.252427,-2.214933 -2.581927,-2.403163 -1.483728,-0.210065 -2.486299,0.399306 -2.486299,2.403163 0,2.003857 1.770442,1.646163 3.203501,1.931954 z"
       id="path4043"
       inkscape:connector-curvature="0"
       sodipodi:nodetypes="sssss" />
    <path
       inkscape:connector-curvature="0"
       id="path4045"
       d="m 77.883799,42.092853 c 0,-1.305265 0.41848,-2.011092 1.125139,-2.29195 -0.311726,0.589527 -0.500062,1.385416 -0.500062,2.416966 0,0.613933 0.10336,1.051843 0.291702,1.416841 -0.544083,-0.214865 -0.916779,-0.620083 -0.916779,-1.541857 z"
       style="fill:#1f0e01;fill-opacity:0.90196078" />
    <path
       inkscape:connector-curvature="0"
       id="path4047"
       d="m 87.468315,40.217622 c 0.852152,0.347957 1.37517,0.895299 1.37517,1.958575 0,1.253088 -0.512431,1.726718 -1.333498,1.958575 0.562044,-0.306923 0.875108,-0.886968 0.875108,-2.000247 0,-0.958843 -0.319162,-1.529554 -0.91678,-1.916903 z"
       style="fill:#823800;fill-opacity:1" />
    <g
       id="g4049"
       transform="matrix(0,-1,1,0,65.218485,64.098512)">
      <path
         style="fill:#c45500;fill-opacity:1"
         d="m 11.741766,51.214127 c -0.471463,2.624996 0.08993,4.596762 -2.4162461,4.596762 -2.5061736,0 -2.180515,-2.796825 -3.0055748,-6.364747 -0.7772927,-3.361356 0.4994012,-6.129016 3.0055748,-6.129016 2.5061731,0 3.0261351,4.501278 2.4162461,7.897001 z"
         id="path4051"
         inkscape:connector-curvature="0"
         sodipodi:nodetypes="sssss" />
      <path
         sodipodi:nodetypes="sssss"
         inkscape:connector-curvature="0"
         id="path4053"
         d="m 11.198984,48.052881 c 0.212361,1.064857 0.0719,1.864725 -1.9319543,1.864725 -2.003857,0 -2.2149332,-1.252427 -2.4031627,-2.581927 -0.2100651,-1.483728 0.3993057,-2.486299 2.4031627,-2.486299 2.0038573,0 1.6461633,1.770442 1.9319543,3.203501 z"
         style="fill:#4e2403;fill-opacity:1" />
      <path
         style="fill:#1f0e01;fill-opacity:0.90196078"
         d="m 9.2492379,44.852814 c -1.3052647,0 -2.011092,0.41848 -2.2919495,1.125139 0.589527,-0.311726 1.3854157,-0.500062 2.4169655,-0.500062 0.6139331,0 1.0518431,0.10336 1.4168411,0.291703 -0.214865,-0.544083 -0.620083,-0.91678 -1.5418571,-0.91678 z"
         id="path4055"
         inkscape:connector-curvature="0" />
      <path
         style="fill:#823800;fill-opacity:1"
         d="m 7.3740065,54.43733 c 0.3479576,0.852152 0.895299,1.37517 1.958575,1.37517 1.2530885,0 1.7267185,-0.512431 1.9585755,-1.333498 -0.306923,0.562044 -0.886968,0.875108 -2.0002473,0.875108 -0.9588428,0 -1.5295537,-0.319161 -1.9169032,-0.91678 z"
         id="path4057"
         inkscape:connector-curvature="0" />
      <path
         sodipodi:nodetypes="sssss"
         inkscape:connector-curvature="0"
         id="path4059"
         d="m 19.825631,51.214127 c 0.471463,2.624996 -0.08993,4.596762 2.416246,4.596762 2.506174,0 2.180515,-2.796825 3.005575,-6.364747 0.777293,-3.361356 -0.499401,-6.129016 -3.005575,-6.129016 -2.506173,0 -3.026135,4.501278 -2.416246,7.897001 z"
         style="fill:#c45500;fill-opacity:1" />
      <path
         style="fill:#4e2403;fill-opacity:1"
         d="m 20.368413,48.052881 c -0.212361,1.064857 -0.0719,1.864725 1.931954,1.864725 2.003857,0 2.214933,-1.252427 2.403163,-2.581927 0.210065,-1.483728 -0.399306,-2.486299 -2.403163,-2.486299 -2.003857,0 -1.646163,1.770442 -1.931954,3.203501 z"
         id="path4061"
         inkscape:connector-curvature="0"
         sodipodi:nodetypes="sssss" />
      <path
         inkscape:connector-curvature="0"
         id="path4063"
         d="m 22.318159,44.852814 c 1.305265,0 2.011092,0.41848 2.29195,1.125139 -0.589527,-0.311726 -1.385416,-0.500062 -2.416966,-0.500062 -0.613933,0 -1.051843,0.10336 -1.416841,0.291703 0.214865,-0.544083 0.620083,-0.91678 1.541857,-0.91678 z"
         style="fill:#1f0e01;fill-opacity:0.90196078" />
      <path
         inkscape:connector-curvature="0"
         id="path4065"
         d="m 24.19339,54.43733 c -0.347957,0.852152 -0.895299,1.37517 -1.958575,1.37517 -1.253088,0 -1.726718,-0.512431 -1.958575,-1.333498 0.306923,0.562044 0.886968,0.875108 2.000247,0.875108 0.958843,0 1.529554,-0.319161 1.916903,-0.91678 z"
         style="fill:#823800;fill-opacity:1" />
    </g>
    <path
       style="fill:#823800;fill-opacity:1"
       d="m 54.968314,39.998871 c 0.852152,0.389596 1.37517,1.002436 1.37517,2.19295 0,1.40304 -0.512431,1.933348 -1.333498,2.19295 0.562044,-0.343651 0.875108,-0.993108 0.875108,-2.239609 0,-1.073584 -0.319161,-1.712589 -0.91678,-2.146291 z"
       id="path4103"
       inkscape:connector-curvature="0" />
    <path
       sodipodi:nodetypes="sssss"
       inkscape:connector-curvature="0"
       id="path4105"
       d="m 86.09913,52.794246 c 1.994764,0.471463 3.493131,-0.08993 3.493131,2.416246 0,2.506174 -2.125339,2.180515 -4.836642,3.005575 -2.554332,0.777293 -4.657508,-0.499401 -4.657508,-3.005575 0,-2.506173 3.420571,-3.026135 6.001019,-2.416246 z"
       style="fill:#c45500;fill-opacity:1" />
    <path
       style="fill:#4e2403;fill-opacity:1"
       d="m 83.696864,53.337028 c 0.809197,-0.212361 1.417025,-0.0719 1.417025,1.931954 0,2.003857 -0.951733,2.214933 -1.962035,2.403163 -1.127501,0.210065 -1.889366,-0.399306 -1.889366,-2.403163 0,-2.003857 1.345378,-1.646163 2.434376,-1.931954 z"
       id="path4107"
       inkscape:connector-curvature="0"
       sodipodi:nodetypes="sssss" />
    <path
       inkscape:connector-curvature="0"
       id="path4109"
       d="m 81.265097,55.286774 c 0,1.305265 0.318008,2.011092 0.855006,2.29195 -0.236884,-0.589527 -0.380003,-1.385416 -0.380003,-2.416966 0,-0.613933 0.07855,-1.051843 0.221669,-1.416841 -0.413455,0.214865 -0.696672,0.620083 -0.696672,1.541857 z"
       style="fill:#1f0e01;fill-opacity:0.90196078" />
    <path
       sodipodi:nodetypes="cscsc"
       inkscape:connector-curvature="0"
       id="path4111"
       d="m 87.423478,57.537005 c 1.313439,-0.184725 2.170007,-0.788149 2.170007,-2.271075 0,-1.671774 -0.621112,-2.064724 -2.104249,-2.271075 0.886901,0.355894 1.380912,1.028488 1.380912,2.319396 0,1.111831 -0.503633,1.773602 -1.44667,2.222754 z"
       style="fill:#ff9b4e;fill-opacity:1" />
    <path
       inkscape:connector-curvature="0"
       id="path4113"
       d="m 87.468315,57.505755 c 0.852152,-0.389596 1.37517,-1.002436 1.37517,-2.19295 0,-1.40304 -0.512431,-1.933348 -1.333498,-2.19295 0.562044,0.343651 0.875108,0.993108 0.875108,2.239609 0,1.073584 -0.319162,1.712589 -0.91678,2.146291 z"
       style="fill:#823800;fill-opacity:1" />
  </g>
</svg>
