<?xml version="1.0" encoding="UTF-8" standalone="no"?>
<!-- Created with Inkscape (http://www.inkscape.org/) -->

<svg
   xmlns:dc="http://purl.org/dc/elements/1.1/"
   xmlns:cc="http://creativecommons.org/ns#"
   xmlns:rdf="http://www.w3.org/1999/02/22-rdf-syntax-ns#"
   xmlns:svg="http://www.w3.org/2000/svg"
   xmlns="http://www.w3.org/2000/svg"
   xmlns:sodipodi="http://sodipodi.sourceforge.net/DTD/sodipodi-0.dtd"
   xmlns:inkscape="http://www.inkscape.org/namespaces/inkscape"
   width="128"
   height="64"
   id="svg2"
   version="1.1"
   inkscape:version="0.48.3.1 r9886"
   sodipodi:docname="hert.svg"
   inkscape:export-filename="/home/lsimons/node_projects/ige_prototype/rh/assets/images/hert.png"
   inkscape:export-xdpi="90"
   inkscape:export-ydpi="90">
  <defs
     id="defs4" />
  <sodipodi:namedview
     id="base"
     pagecolor="#ffffff"
     bordercolor="#666666"
     borderopacity="1.0"
     inkscape:pageopacity="0.0"
     inkscape:pageshadow="2"
     inkscape:zoom="16"
     inkscape:cx="60.162593"
     inkscape:cy="17.100242"
     inkscape:document-units="px"
     inkscape:current-layer="layer2"
     showgrid="false"
     inkscape:window-width="1920"
     inkscape:window-height="1030"
     inkscape:window-x="0"
     inkscape:window-y="0"
     inkscape:window-maximized="1" />
  <metadata
     id="metadata7">
    <rdf:RDF>
      <cc:Work
         rdf:about="">
        <dc:format>image/svg+xml</dc:format>
        <dc:type
           rdf:resource="http://purl.org/dc/dcmitype/StillImage" />
        <dc:title />
      </cc:Work>
    </rdf:RDF>
  </metadata>
  <g
     inkscape:label="Grid"
     inkscape:groupmode="layer"
     id="layer1"
     transform="translate(0,-988.36218)"
     sodipodi:insensitive="true"
     style="display:none">
    <rect
       style="fill:#cecece;fill-opacity:1;stroke:none"
       id="rect2985"
       width="32"
       height="32"
       x="0"
       y="1020.3622" />
    <rect
       y="1020.3622"
       x="32"
       height="32"
       width="32"
       id="rect3755"
       style="fill:#f0f0f0;fill-opacity:1;stroke:none" />
    <rect
       y="1020.3622"
       x="64"
       height="32"
       width="32"
       id="rect3763"
       style="fill:#cecece;fill-opacity:1;stroke:none" />
    <rect
       style="fill:#f0f0f0;fill-opacity:1;stroke:none"
       id="rect3765"
       width="32"
       height="32"
       x="96"
       y="1020.3622" />
    <rect
       y="988.36218"
       x="0"
       height="32"
       width="32"
       id="rect3771"
       style="fill:#f0f0f0;fill-opacity:1;stroke:none" />
    <rect
       style="fill:#cecece;fill-opacity:1;stroke:none"
       id="rect3773"
       width="32"
       height="32"
       x="32"
       y="988.36218" />
    <rect
       style="fill:#f0f0f0;fill-opacity:1;stroke:none"
       id="rect3775"
       width="32"
       height="32"
       x="64"
       y="988.36218" />
    <rect
       y="988.36218"
       x="96"
       height="32"
       width="32"
       id="rect3777"
       style="fill:#cecece;fill-opacity:1;stroke:none" />
  </g>
  <g
     inkscape:groupmode="layer"
     id="layer2"
     inkscape:label="Layer"
     style="opacity:0.9;display:inline">
    <path
       sodipodi:type="arc"
       style="fill:#eaff7d;fill-opacity:1;stroke:none"
       id="path3799"
       sodipodi:cx="16.125"
       sodipodi:cy="18.375"
       sodipodi:rx="8.5"
       sodipodi:ry="8.5"
       d="m 24.625,18.375 a 8.5,8.5 0 1 1 -17,0 8.5,8.5 0 1 1 17,0 z"
       transform="matrix(0.67659534,0,0,0.67659534,5.0899002,3.5686211)" />
    <path
       sodipodi:nodetypes="cccc"
       inkscape:connector-curvature="0"
       id="path3806"
       d="M 17.437765,19.600896 16,21.757544 14.562235,19.600896 c 0.604744,0 2.159024,0 2.87553,0 z"
       style="fill:#292929;fill-opacity:1;stroke:none" />
    <g
       id="g3941">
      <path
         sodipodi:nodetypes="sssss"
         inkscape:connector-curvature="0"
         id="path3910"
         d="m 11.741766,51.214127 c -0.471463,2.624996 0.08993,4.596762 -2.4162461,4.596762 -2.5061736,0 -2.180515,-2.796825 -3.0055748,-6.364747 -0.7772927,-3.361356 0.4994012,-6.129016 3.0055748,-6.129016 2.5061731,0 3.0261351,4.501278 2.4162461,7.897001 z"
         style="fill:#c45500;fill-opacity:1" />
      <path
         style="fill:#4e2403;fill-opacity:1"
         d="m 11.198984,48.052881 c 0.212361,1.064857 0.0719,1.864725 -1.9319543,1.864725 -2.003857,0 -2.2149332,-1.252427 -2.4031627,-2.581927 -0.2100651,-1.483728 0.3993057,-2.486299 2.4031627,-2.486299 2.0038573,0 1.6461633,1.770442 1.9319543,3.203501 z"
         id="path3913"
         inkscape:connector-curvature="0"
         sodipodi:nodetypes="sssss" />
      <path
         inkscape:connector-curvature="0"
         id="path3915"
         d="m 9.2492379,44.852814 c -1.3052647,0 -2.011092,0.41848 -2.2919495,1.125139 0.589527,-0.311726 1.3854157,-0.500062 2.4169655,-0.500062 0.6139331,0 1.0518431,0.10336 1.4168411,0.291703 -0.214865,-0.544083 -0.620083,-0.91678 -1.5418571,-0.91678 z"
         style="fill:#1f0e01;fill-opacity:0.90196078" />
      <path
         inkscape:connector-curvature="0"
         id="path3922"
         d="m 7.3740065,54.43733 c 0.3479576,0.852152 0.895299,1.37517 1.958575,1.37517 1.2530885,0 1.7267185,-0.512431 1.9585755,-1.333498 -0.306923,0.562044 -0.886968,0.875108 -2.0002473,0.875108 -0.9588428,0 -1.5295537,-0.319161 -1.9169032,-0.91678 z"
         style="fill:#823800;fill-opacity:1" />
      <path
         style="fill:#c45500;fill-opacity:1"
         d="m 19.825631,51.214127 c 0.471463,2.624996 -0.08993,4.596762 2.416246,4.596762 2.506174,0 2.180515,-2.796825 3.005575,-6.364747 0.777293,-3.361356 -0.499401,-6.129016 -3.005575,-6.129016 -2.506173,0 -3.026135,4.501278 -2.416246,7.897001 z"
         id="path3933"
         inkscape:connector-curvature="0"
         sodipodi:nodetypes="sssss" />
      <path
         sodipodi:nodetypes="sssss"
         inkscape:connector-curvature="0"
         id="path3935"
         d="m 20.368413,48.052881 c -0.212361,1.064857 -0.0719,1.864725 1.931954,1.864725 2.003857,0 2.214933,-1.252427 2.403163,-2.581927 0.210065,-1.483728 -0.399306,-2.486299 -2.403163,-2.486299 -2.003857,0 -1.646163,1.770442 -1.931954,3.203501 z"
         style="fill:#4e2403;fill-opacity:1" />
      <path
         style="fill:#1f0e01;fill-opacity:0.90196078"
         d="m 22.318159,44.852814 c 1.305265,0 2.011092,0.41848 2.29195,1.125139 -0.589527,-0.311726 -1.385416,-0.500062 -2.416966,-0.500062 -0.613933,0 -1.051843,0.10336 -1.416841,0.291703 0.214865,-0.544083 0.620083,-0.91678 1.541857,-0.91678 z"
         id="path3937"
         inkscape:connector-curvature="0" />
      <path
         style="fill:#823800;fill-opacity:1"
         d="m 24.19339,54.43733 c -0.347957,0.852152 -0.895299,1.37517 -1.958575,1.37517 -1.253088,0 -1.726718,-0.512431 -1.958575,-1.333498 0.306923,0.562044 0.886968,0.875108 2.000247,0.875108 0.958843,0 1.529554,-0.319161 1.916903,-0.91678 z"
         id="path3939"
         inkscape:connector-curvature="0" />
    </g>
    <path
       sodipodi:nodetypes="sssss"
       inkscape:connector-curvature="0"
       id="path4015"
       d="m 43.741365,51.214127 c -0.471463,2.624996 0.08993,4.596762 -2.416246,4.596762 -2.506174,0 -2.180515,-2.796825 -3.005575,-6.364747 -0.777293,-3.361356 0.499401,-6.129016 3.005575,-6.129016 2.506173,0 3.026135,4.501278 2.416246,7.897001 z"
       style="fill:#c45500;fill-opacity:1" />
    <path
       style="fill:#4e2403;fill-opacity:1"
       d="m 43.198583,48.052881 c 0.212361,1.064857 0.0719,1.864725 -1.931954,1.864725 -2.003857,0 -2.214934,-1.252427 -2.403163,-2.581927 -0.210065,-1.483728 0.399306,-2.486299 2.403163,-2.486299 2.003857,0 1.646163,1.770442 1.931954,3.203501 z"
       id="path4017"
       inkscape:connector-curvature="0"
       sodipodi:nodetypes="sssss" />
    <path
       inkscape:connector-curvature="0"
       id="path4019"
       d="m 41.248837,44.852814 c -1.305265,0 -2.011092,0.41848 -2.29195,1.125139 0.589527,-0.311726 1.385416,-0.500062 2.416966,-0.500062 0.613933,0 1.051843,0.10336 1.416841,0.291703 -0.214865,-0.544083 -0.620083,-0.91678 -1.541857,-0.91678 z"
       style="fill:#1f0e01;fill-opacity:0.90196078" />
    <path
       inkscape:connector-curvature="0"
       id="path4021"
       d="m 39.373605,54.43733 c 0.347958,0.852152 0.895299,1.37517 1.958575,1.37517 1.253089,0 1.726719,-0.512431 1.958576,-1.333498 -0.306923,0.562044 -0.886968,0.875108 -2.000247,0.875108 -0.958843,0 -1.529554,-0.319161 -1.916904,-0.91678 z"
       style="fill:#823800;fill-opacity:1" />
    <path
       style="fill:#c45500;fill-opacity:1"
       d="m 51.82523,53.193145 c 0.471463,1.994764 -0.08993,3.493131 2.416246,3.493131 2.506174,0 2.180515,-2.125339 3.005575,-4.836642 0.777293,-2.554332 -0.499401,-4.657508 -3.005575,-4.657508 -2.506173,0 -3.026135,3.420571 -2.416246,6.001019 z"
       id="path4023"
       inkscape:connector-curvature="0"
       sodipodi:nodetypes="sssss" />
    <path
       sodipodi:nodetypes="sssss"
       inkscape:connector-curvature="0"
       id="path4025"
       d="m 52.368012,50.790879 c -0.212361,0.809197 -0.0719,1.417025 1.931954,1.417025 2.003857,0 2.214933,-0.951733 2.403163,-1.962035 0.210065,-1.127501 -0.399306,-1.889366 -2.403163,-1.889366 -2.003857,0 -1.646163,1.345379 -1.931954,2.434376 z"
       style="fill:#4e2403;fill-opacity:1" />
    <path
       style="fill:#1f0e01;fill-opacity:0.90196078"
       d="m 54.317758,48.359112 c 1.305265,0 2.011092,0.318008 2.29195,0.855006 -0.589527,-0.236884 -1.385416,-0.380003 -2.416966,-0.380003 -0.613933,0 -1.051843,0.07855 -1.416841,0.221669 0.214865,-0.413455 0.620083,-0.696672 1.541857,-0.696672 z"
       id="path4027"
       inkscape:connector-curvature="0" />
    <path
       style="fill:#ff9b4e;fill-opacity:1"
       d="m 56.567989,54.517493 c -0.184725,1.313439 -0.788149,2.170007 -2.271075,2.170007 -1.671774,0 -2.064724,-0.621112 -2.271075,-2.104249 0.355894,0.886902 1.028488,1.380913 2.319396,1.380913 1.111831,0 1.773602,-0.503634 2.222754,-1.446671 z"
       id="path4029"
       inkscape:connector-curvature="0"
       sodipodi:nodetypes="cscsc" />
    <path
       sodipodi:nodetypes="sssss"
       inkscape:connector-curvature="0"
       id="path4041"
       d="m 83.82523,51.214127 c 0.471463,2.624996 -0.08993,4.596762 2.416246,4.596762 2.506174,0 2.180515,-2.796825 3.005575,-6.364747 0.777293,-3.361356 -0.499401,-6.129016 -3.005575,-6.129016 -2.506173,0 -3.026135,4.501278 -2.416246,7.897001 z"
       style="fill:#c45500;fill-opacity:1" />
    <path
       style="fill:#4e2403;fill-opacity:1"
       d="m 84.368012,48.052881 c -0.212361,1.064857 -0.0719,1.864725 1.931954,1.864725 2.003857,0 2.214933,-1.252427 2.403163,-2.581927 0.210065,-1.483728 -0.399306,-2.486299 -2.403163,-2.486299 -2.003857,0 -1.646163,1.770442 -1.931954,3.203501 z"
       id="path4043"
       inkscape:connector-curvature="0"
       sodipodi:nodetypes="sssss" />
    <path
       inkscape:connector-curvature="0"
       id="path4045"
       d="m 86.317758,44.852814 c 1.305265,0 2.011092,0.41848 2.29195,1.125139 -0.589527,-0.311726 -1.385416,-0.500062 -2.416966,-0.500062 -0.613933,0 -1.051843,0.10336 -1.416841,0.291703 0.214865,-0.544083 0.620083,-0.91678 1.541857,-0.91678 z"
       style="fill:#1f0e01;fill-opacity:0.90196078" />
    <path
       inkscape:connector-curvature="0"
       id="path4047"
       d="m 88.192989,54.43733 c -0.347957,0.852152 -0.895299,1.37517 -1.958575,1.37517 -1.253088,0 -1.726718,-0.512431 -1.958575,-1.333498 0.306923,0.562044 0.886968,0.875108 2.000247,0.875108 0.958843,0 1.529554,-0.319161 1.916903,-0.91678 z"
       style="fill:#823800;fill-opacity:1" />
    <g
       id="g4049"
       transform="translate(95.999599,0)">
      <path
         style="fill:#c45500;fill-opacity:1"
         d="m 11.741766,51.214127 c -0.471463,2.624996 0.08993,4.596762 -2.4162461,4.596762 -2.5061736,0 -2.180515,-2.796825 -3.0055748,-6.364747 -0.7772927,-3.361356 0.4994012,-6.129016 3.0055748,-6.129016 2.5061731,0 3.0261351,4.501278 2.4162461,7.897001 z"
         id="path4051"
         inkscape:connector-curvature="0"
         sodipodi:nodetypes="sssss" />
      <path
         sodipodi:nodetypes="sssss"
         inkscape:connector-curvature="0"
         id="path4053"
         d="m 11.198984,48.052881 c 0.212361,1.064857 0.0719,1.864725 -1.9319543,1.864725 -2.003857,0 -2.2149332,-1.252427 -2.4031627,-2.581927 -0.2100651,-1.483728 0.3993057,-2.486299 2.4031627,-2.486299 2.0038573,0 1.6461633,1.770442 1.9319543,3.203501 z"
         style="fill:#4e2403;fill-opacity:1" />
      <path
         style="fill:#1f0e01;fill-opacity:0.90196078"
         d="m 9.2492379,44.852814 c -1.3052647,0 -2.011092,0.41848 -2.2919495,1.125139 0.589527,-0.311726 1.3854157,-0.500062 2.4169655,-0.500062 0.6139331,0 1.0518431,0.10336 1.4168411,0.291703 -0.214865,-0.544083 -0.620083,-0.91678 -1.5418571,-0.91678 z"
         id="path4055"
         inkscape:connector-curvature="0" />
      <path
         style="fill:#823800;fill-opacity:1"
         d="m 7.3740065,54.43733 c 0.3479576,0.852152 0.895299,1.37517 1.958575,1.37517 1.2530885,0 1.7267185,-0.512431 1.9585755,-1.333498 -0.306923,0.562044 -0.886968,0.875108 -2.0002473,0.875108 -0.9588428,0 -1.5295537,-0.319161 -1.9169032,-0.91678 z"
         id="path4057"
         inkscape:connector-curvature="0" />
      <path
         sodipodi:nodetypes="sssss"
         inkscape:connector-curvature="0"
         id="path4059"
         d="m 19.825631,51.214127 c 0.471463,2.624996 -0.08993,4.596762 2.416246,4.596762 2.506174,0 2.180515,-2.796825 3.005575,-6.364747 0.777293,-3.361356 -0.499401,-6.129016 -3.005575,-6.129016 -2.506173,0 -3.026135,4.501278 -2.416246,7.897001 z"
         style="fill:#c45500;fill-opacity:1" />
      <path
         style="fill:#4e2403;fill-opacity:1"
         d="m 20.368413,48.052881 c -0.212361,1.064857 -0.0719,1.864725 1.931954,1.864725 2.003857,0 2.214933,-1.252427 2.403163,-2.581927 0.210065,-1.483728 -0.399306,-2.486299 -2.403163,-2.486299 -2.003857,0 -1.646163,1.770442 -1.931954,3.203501 z"
         id="path4061"
         inkscape:connector-curvature="0"
         sodipodi:nodetypes="sssss" />
      <path
         inkscape:connector-curvature="0"
         id="path4063"
         d="m 22.318159,44.852814 c 1.305265,0 2.011092,0.41848 2.29195,1.125139 -0.589527,-0.311726 -1.385416,-0.500062 -2.416966,-0.500062 -0.613933,0 -1.051843,0.10336 -1.416841,0.291703 0.214865,-0.544083 0.620083,-0.91678 1.541857,-0.91678 z"
         style="fill:#1f0e01;fill-opacity:0.90196078" />
      <path
         inkscape:connector-curvature="0"
         id="path4065"
         d="m 24.19339,54.43733 c -0.347957,0.852152 -0.895299,1.37517 -1.958575,1.37517 -1.253088,0 -1.726718,-0.512431 -1.958575,-1.333498 0.306923,0.562044 0.886968,0.875108 2.000247,0.875108 0.958843,0 1.529554,-0.319161 1.916903,-0.91678 z"
         style="fill:#823800;fill-opacity:1" />
    </g>
    <path
       style="fill:#823800;fill-opacity:1"
       d="m 56.536739,54.56233 c -0.389596,0.852152 -1.002436,1.37517 -2.19295,1.37517 -1.40304,0 -1.933348,-0.512431 -2.19295,-1.333498 0.343651,0.562044 0.993108,0.875108 2.239609,0.875108 1.073584,0 1.712589,-0.319161 2.146291,-0.91678 z"
       id="path4103"
       inkscape:connector-curvature="0" />
    <path
       sodipodi:nodetypes="sssss"
       inkscape:connector-curvature="0"
       id="path4105"
       d="m 75.616365,53.068145 c -0.471463,1.994764 0.08993,3.493131 -2.416246,3.493131 -2.506174,0 -2.180515,-2.125339 -3.005575,-4.836642 -0.777293,-2.554332 0.499401,-4.657508 3.005575,-4.657508 2.506173,0 3.026135,3.420571 2.416246,6.001019 z"
       style="fill:#c45500;fill-opacity:1" />
    <path
       style="fill:#4e2403;fill-opacity:1"
       d="m 75.073583,50.665879 c 0.212361,0.809197 0.0719,1.417025 -1.931954,1.417025 -2.003857,0 -2.214933,-0.951733 -2.403163,-1.962035 -0.210065,-1.127501 0.399306,-1.889366 2.403163,-1.889366 2.003857,0 1.646163,1.345379 1.931954,2.434376 z"
       id="path4107"
       inkscape:connector-curvature="0"
       sodipodi:nodetypes="sssss" />
    <path
       inkscape:connector-curvature="0"
       id="path4109"
       d="m 73.123837,48.234112 c -1.305265,0 -2.011092,0.318008 -2.29195,0.855006 0.589527,-0.236884 1.385416,-0.380003 2.416966,-0.380003 0.613933,0 1.051843,0.07855 1.416841,0.221669 -0.214865,-0.413455 -0.620083,-0.696672 -1.541857,-0.696672 z"
       style="fill:#1f0e01;fill-opacity:0.90196078" />
    <path
       sodipodi:nodetypes="cscsc"
       inkscape:connector-curvature="0"
       id="path4111"
       d="m 70.873606,54.392493 c 0.184725,1.313439 0.788149,2.170007 2.271075,2.170007 1.671774,0 2.064724,-0.621112 2.271075,-2.104249 -0.355894,0.886902 -1.028488,1.380913 -2.319396,1.380913 -1.111831,0 -1.773602,-0.503634 -2.222754,-1.446671 z"
       style="fill:#ff9b4e;fill-opacity:1" />
    <path
       inkscape:connector-curvature="0"
       id="path4113"
       d="m 70.904856,54.43733 c 0.389596,0.852152 1.002436,1.37517 2.19295,1.37517 1.40304,0 1.933348,-0.512431 2.19295,-1.333498 -0.343651,0.562044 -0.993108,0.875108 -2.239609,0.875108 -1.073584,0 -1.712589,-0.319161 -2.146291,-0.91678 z"
       style="fill:#823800;fill-opacity:1" />
  </g>
</svg>
